<?xml version="1.0" encoding="iso-8859-1"?>
<!-- Generator: Adobe Illustrator 20.0.0, SVG Export Plug-In . SVG Version: 6.00 Build 0)  -->
<svg version="1.1" id="Layer_1_1_" xmlns="http://www.w3.org/2000/svg" xmlns:xlink="http://www.w3.org/1999/xlink" x="0px" y="0px"
	 viewBox="0 0 64 64" style="enable-background:new 0 0 64 64;" xml:space="preserve">
<g id="Guide">
	<g>
	</g>
	<g>
	</g>
	<g>
	</g>
	<g>
	</g>
	<g>
	</g>
	<g>
	</g>
	<g>
	</g>
	<g>
	</g>
	<g>
	</g>
	<g>
	</g>
	<g>
	</g>
	<g>
	</g>
	<g>
	</g>
	<g>
	</g>
	<g>
	</g>
	<g>
	</g>
	<g>
	</g>
	<g>
	</g>
	<g>
	</g>
	<g>
	</g>
	<g>
	</g>
	<g>
	</g>
	<g>
	</g>
	<g>
	</g>
	<g>
	</g>
	<g>
	</g>
	<g>
	</g>
	<g>
	</g>
	<g>
	</g>
	<g>
	</g>
	<g>
	</g>
	<g>
	</g>
	<g>
	</g>
	<g>
	</g>
	<g>
	</g>
	<g>
	</g>
</g>
<path d="M59,8H44V5c0-2.757-2.243-5-5-5H25c-2.757,0-5,2.243-5,5v3H5c-2.757,0-5,2.243-5,5v13v1v32c0,2.757,2.243,5,5,5h23h8h23
	c2.757,0,5-2.243,5-5V27v-1V13C64,10.243,61.757,8,59,8z M22,5c0-1.654,1.346-3,3-3h14c1.654,0,3,1.346,3,3v9h-2V5
	c0-0.553-0.448-1-1-1H25c-0.552,0-1,0.447-1,1v9h-2V5z M38,8H26V6h12V8z M5,10h15v5c0,0.553,0.448,1,1,1h4c0.552,0,1-0.447,1-1v-5
	h12v5c0,0.553,0.448,1,1,1h4c0.552,0,1-0.447,1-1v-5h15c1.654,0,3,1.346,3,3v9.026C61.162,21.391,60.13,21,59,21H36h-8H5
	c-1.13,0-2.162,0.391-3,1.026V13C2,11.346,3.346,10,5,10z M2,32.949c5.268-0.478,9.472-4.681,9.949-9.949H27v15v9v15H11.949
	C11.472,56.732,7.268,52.528,2,52.051V32.949z M29,23h6v14h-6V23z M29,39h6v7h-6V39z M37,47v-9V23h15.051
	c0.478,5.268,4.681,9.472,9.949,9.949v19.101c-5.268,0.478-9.472,4.681-9.949,9.949H37V47z M2,26c0-1.654,1.346-3,3-3h4.941
	C9.478,27.165,6.164,30.478,2,30.941V27V26z M2,59v-4.941C6.164,54.522,9.478,57.835,9.941,62H5C3.346,62,2,60.654,2,59z M29,62V48
	h6v14H29z M59,62h-4.941c0.463-4.165,3.777-7.478,7.941-7.941V59C62,60.654,60.654,62,59,62z M62,30.941
	c-4.164-0.463-7.478-3.776-7.941-7.941H59c1.654,0,3,1.346,3,3v1V30.941z"/>
<path d="M44.293,40.636c-0.375-0.375-1.039-0.375-1.414,0l-4.243,4.243c-0.391,0.391-0.391,1.023,0,1.414l7.071,7.071
	c0.188,0.188,0.442,0.293,0.707,0.293s0.52-0.105,0.707-0.293l4.243-4.243c0.391-0.391,0.391-1.023,0-1.414L44.293,40.636z
	 M46.414,51.243l-5.657-5.657l2.829-2.829l5.657,5.657L46.414,51.243z"/>
<path d="M42,36h10c0.552,0,1-0.447,1-1v-6c0-0.553-0.448-1-1-1H42c-0.552,0-1,0.447-1,1v6C41,35.553,41.448,36,42,36z M43,30h8v4h-8
	V30z"/>
<path d="M19.395,48.553c-0.339-0.678-1.45-0.678-1.789,0l-4.5,9c-0.155,0.31-0.138,0.678,0.044,0.973S13.653,59,14,59h9
	c0.347,0,0.668-0.18,0.851-0.475s0.199-0.663,0.044-0.973L19.395,48.553z M15.618,57l2.882-5.764L21.382,57H15.618z"/>
<path d="M10,48c0.256,0,0.512-0.098,0.707-0.293l13-13c0.391-0.391,0.391-1.023,0-1.414l-4-4c-0.391-0.391-1.023-0.391-1.414,0
	l-13,13c-0.391,0.391-0.391,1.023,0,1.414l4,4C9.488,47.902,9.744,48,10,48z M19,31.414L21.586,34L10,45.586L7.414,43L19,31.414z"/>
<rect x="4" y="14" width="2" height="2"/>
<rect x="8" y="14" width="2" height="2"/>
<rect x="12" y="14" width="2" height="2"/>
<rect x="16" y="14" width="2" height="2"/>
<rect x="46" y="14" width="2" height="2"/>
<rect x="50" y="14" width="2" height="2"/>
<rect x="54" y="14" width="2" height="2"/>
<rect x="58" y="14" width="2" height="2"/>
<path d="M32,19c1.654,0,3-1.346,3-3v-1c0-1.654-1.346-3-3-3s-3,1.346-3,3v1C29,17.654,30.346,19,32,19z M31,15c0-0.552,0.449-1,1-1
	s1,0.448,1,1v1c0,0.552-0.449,1-1,1s-1-0.448-1-1V15z"/>
</svg>
